<?xml version="1.0" standalone="no"?><!DOCTYPE svg PUBLIC "-//W3C//DTD SVG 1.1//EN" "http://www.w3.org/Graphics/SVG/1.1/DTD/svg11.dtd"><svg t="1534484770782" class="icon" style="" viewBox="0 0 1024 1024" version="1.1" xmlns="http://www.w3.org/2000/svg" p-id="3167" xmlns:xlink="http://www.w3.org/1999/xlink" width="128" height="128"><defs><style type="text/css"></style></defs><path d="M511.949344 60.379159c-247.248071 0-447.714806 200.414519-447.714806 447.696462 0 247.238964 200.466735 447.696462 447.714806 447.696462s447.714806-200.457498 447.714806-447.696462C959.66415 260.793678 759.197415 60.379159 511.949344 60.379159zM511.949344 911.002436c-222.546494 0-402.943325-180.38944-402.943325-402.926816 0-222.536352 180.396831-402.926816 402.943325-402.926816s402.943325 180.390463 402.943325 402.926816C914.892669 730.612996 734.495838 911.002436 511.949344 911.002436zM636.732322 241.819534l-82.197368 151.447271c-21.903743 41.008996-35.327001 68.290339-40.224745 81.84403l-1.398917 0c-14.428185-32.877805-55.264892-110.656239-122.422113-233.292324l-77.300647 0 143.758922 246.932995L339.071052 488.751506l0 54.562686 138.162231 0 0 75.198679-138.162231 0 0 55.262628 138.162231 0L477.233282 783.251867l68.556138 0L545.78942 673.776524l133.26551 0 0-55.262628L545.78942 618.513896l0-75.198679 133.26551 0 0-54.562686L564.677357 488.75253l145.157838-246.932995L636.732322 241.819534z" p-id="3168" fill="#d81e06"></path></svg>