<?xml version="1.0" standalone="no"?><!DOCTYPE svg PUBLIC "-//W3C//DTD SVG 1.1//EN" "http://www.w3.org/Graphics/SVG/1.1/DTD/svg11.dtd"><svg t="1534484892573" class="icon" style="" viewBox="0 0 1024 1024" version="1.1" xmlns="http://www.w3.org/2000/svg" p-id="5140" xmlns:xlink="http://www.w3.org/1999/xlink" width="128" height="128"><defs><style type="text/css"></style></defs><path d="M707.072 530.432c-43.008-32.256-93.184-53.76-150.528-75.776V245.76c17.92 0 39.424 10.752 57.344 25.088 17.92 14.336 28.672 43.008 28.672 79.36h118.272c0-50.176-21.504-93.696-57.344-125.952-35.84-32.256-86.016-50.176-146.944-50.176V101.888H481.792V174.08c-60.928 3.584-111.104 21.504-146.944 50.176-39.424 28.672-57.344 68.608-57.344 111.616 0 32.256 10.752 65.024 35.84 90.112 25.088 25.088 78.848 53.76 164.864 86.528v241.152c-17.92 0-39.424-7.168-64.512-25.088-25.088-17.92-35.84-57.856-35.84-118.784H256c0 72.192 25.088 125.952 68.096 161.792s96.768 53.76 157.696 53.76v93.696h75.264v-93.696c50.176 0 100.352-14.336 143.36-43.008 43.008-28.672 68.096-75.776 68.096-140.288-0.512-47.104-22.016-82.944-61.44-111.616z m-225.28-104.448c-39.424-14.336-64.512-32.256-75.264-46.592-10.752-14.336-14.336-32.256-14.336-50.176 0-25.088 10.752-46.592 28.672-61.44 17.92-14.336 39.424-21.504 60.928-21.504v179.712z m139.264 309.248c-21.504 10.752-43.008 17.92-64.512 21.504v-212.48c28.672 14.336 50.176 28.672 68.096 46.592 14.336 17.92 25.088 39.424 25.088 68.608 0 36.352-10.752 61.44-28.672 75.776z" p-id="5141" fill="#d81e06"></path><path d="M513.536 1.024C230.912 1.024 1.536 231.424 1.536 512.512c0 284.672 229.376 511.488 512 511.488 279.04 0 508.416-226.816 508.416-511.488 0.512-281.088-225.28-511.488-508.416-511.488z m-3.072 953.856c-243.712 0-440.32-198.144-440.32-442.88s200.704-442.88 443.904-442.88c240.128 0 440.32 198.144 436.736 442.88 0 245.248-197.12 442.88-440.32 442.88z" p-id="5142" fill="#d81e06"></path></svg>