<?xml version="1.0" standalone="no"?><!DOCTYPE svg PUBLIC "-//W3C//DTD SVG 1.1//EN" "http://www.w3.org/Graphics/SVG/1.1/DTD/svg11.dtd"><svg t="1533818332961" class="icon" style="" viewBox="0 0 1024 1024" version="1.1" xmlns="http://www.w3.org/2000/svg" p-id="1907" xmlns:xlink="http://www.w3.org/1999/xlink" width="128" height="128"><defs><style type="text/css"></style></defs><path d="M1022.981095 512c0 281.21791-228.234826 509.452736-509.452737 509.452736S4.075622 793.21791 4.075622 512 232.310448 2.547264 513.528358 2.547264s509.452736 227.725373 509.452737 509.452736" fill="#1BA27A" p-id="1908"></path><path d="M752.971144 259.311443H270.519403v116.664676H453.412935v171.17612h116.155224V375.976119h183.402985z" fill="#FFFFFF" p-id="1909"></path><path d="M512.509453 564.983085c-151.307463 0-274.085572-23.944279-274.085572-53.492538s122.778109-53.492537 274.085572-53.492537c151.307463 0 274.085572 23.944279 274.085572 53.492537s-122.778109 53.492537-274.085572 53.492538m307.709452-44.322388c0-38.208955-137.552239-68.776119-307.709452-68.77612s-307.709453 31.076617-307.709453 68.77612c0 33.623881 106.985075 61.643781 248.612935 67.757213v245.556219h116.664677v-245.556219c142.137313-6.113433 250.141294-34.133333 250.141293-67.757213" fill="#FFFFFF" p-id="1910"></path></svg>